<mxfile host="app.diagrams.net" agent="Mozilla/5.0 (X11; Linux x86_64) AppleWebKit/537.36 (KHTML, like Gecko) Chrome/127.0.0.0 Safari/537.36 Edg/127.0.0.0" version="24.7.7">
  <diagram name="Página-1" id="Q5q7qPohx900-bVzsuvk">
    <mxGraphModel dx="626" dy="603" grid="1" gridSize="10" guides="1" tooltips="1" connect="1" arrows="1" fold="1" page="1" pageScale="1" pageWidth="827" pageHeight="1169" math="0" shadow="0">
      <root>
        <mxCell id="0" />
        <mxCell id="1" parent="0" />
        <mxCell id="GUM8zhKuWnprm1asTcz1-36" style="edgeStyle=orthogonalEdgeStyle;rounded=0;orthogonalLoop=1;jettySize=auto;html=1;entryX=0.5;entryY=0;entryDx=0;entryDy=0;" edge="1" parent="1" source="GUM8zhKuWnprm1asTcz1-1" target="GUM8zhKuWnprm1asTcz1-35">
          <mxGeometry relative="1" as="geometry" />
        </mxCell>
        <mxCell id="GUM8zhKuWnprm1asTcz1-1" value="" style="ellipse;whiteSpace=wrap;html=1;aspect=fixed;" vertex="1" parent="1">
          <mxGeometry x="250" y="130" width="90" height="90" as="geometry" />
        </mxCell>
        <mxCell id="GUM8zhKuWnprm1asTcz1-34" style="edgeStyle=orthogonalEdgeStyle;rounded=0;orthogonalLoop=1;jettySize=auto;html=1;entryX=0.5;entryY=0;entryDx=0;entryDy=0;" edge="1" parent="1" source="GUM8zhKuWnprm1asTcz1-2" target="GUM8zhKuWnprm1asTcz1-1">
          <mxGeometry relative="1" as="geometry" />
        </mxCell>
        <mxCell id="GUM8zhKuWnprm1asTcz1-2" value="" style="rounded=0;whiteSpace=wrap;html=1;" vertex="1" parent="1">
          <mxGeometry x="235" y="10" width="120" height="60" as="geometry" />
        </mxCell>
        <mxCell id="GUM8zhKuWnprm1asTcz1-6" value="&lt;font style=&quot;font-size: 16px;&quot;&gt;Fila de Caminhões&lt;/font&gt;" style="text;strokeColor=none;align=center;fillColor=none;html=1;verticalAlign=middle;whiteSpace=wrap;rounded=0;" vertex="1" parent="1">
          <mxGeometry x="265" y="160" width="60" height="30" as="geometry" />
        </mxCell>
        <mxCell id="GUM8zhKuWnprm1asTcz1-8" value="" style="ellipse;whiteSpace=wrap;html=1;aspect=fixed;" vertex="1" parent="1">
          <mxGeometry x="680" y="110" width="110" height="110" as="geometry" />
        </mxCell>
        <mxCell id="GUM8zhKuWnprm1asTcz1-9" value="&lt;font style=&quot;font-size: 16px;&quot;&gt;Fila de Encomendas no Deposito&lt;/font&gt;" style="text;strokeColor=none;align=center;fillColor=none;html=1;verticalAlign=middle;whiteSpace=wrap;rounded=0;" vertex="1" parent="1">
          <mxGeometry x="705" y="150" width="60" height="30" as="geometry" />
        </mxCell>
        <mxCell id="GUM8zhKuWnprm1asTcz1-33" style="edgeStyle=orthogonalEdgeStyle;rounded=0;orthogonalLoop=1;jettySize=auto;html=1;" edge="1" parent="1" source="GUM8zhKuWnprm1asTcz1-10" target="GUM8zhKuWnprm1asTcz1-15">
          <mxGeometry relative="1" as="geometry" />
        </mxCell>
        <mxCell id="GUM8zhKuWnprm1asTcz1-42" style="edgeStyle=orthogonalEdgeStyle;rounded=0;orthogonalLoop=1;jettySize=auto;html=1;entryX=1;entryY=0.5;entryDx=0;entryDy=0;" edge="1" parent="1" source="GUM8zhKuWnprm1asTcz1-10" target="GUM8zhKuWnprm1asTcz1-37">
          <mxGeometry relative="1" as="geometry" />
        </mxCell>
        <mxCell id="GUM8zhKuWnprm1asTcz1-10" value="" style="ellipse;whiteSpace=wrap;html=1;aspect=fixed;" vertex="1" parent="1">
          <mxGeometry x="470" y="130" width="90" height="90" as="geometry" />
        </mxCell>
        <mxCell id="GUM8zhKuWnprm1asTcz1-11" value="&lt;font style=&quot;font-size: 16px;&quot;&gt;Fila de Vans&lt;/font&gt;" style="text;strokeColor=none;align=center;fillColor=none;html=1;verticalAlign=middle;whiteSpace=wrap;rounded=0;" vertex="1" parent="1">
          <mxGeometry x="485" y="160" width="60" height="30" as="geometry" />
        </mxCell>
        <mxCell id="GUM8zhKuWnprm1asTcz1-23" style="edgeStyle=orthogonalEdgeStyle;rounded=0;orthogonalLoop=1;jettySize=auto;html=1;" edge="1" parent="1" source="GUM8zhKuWnprm1asTcz1-15" target="GUM8zhKuWnprm1asTcz1-22">
          <mxGeometry relative="1" as="geometry" />
        </mxCell>
        <mxCell id="GUM8zhKuWnprm1asTcz1-15" value="&lt;b&gt;&lt;font style=&quot;font-size: 15px;&quot;&gt;Carregamento de Vans&lt;/font&gt;&lt;/b&gt;" style="rounded=0;whiteSpace=wrap;html=1;" vertex="1" parent="1">
          <mxGeometry x="455" y="310" width="120" height="60" as="geometry" />
        </mxCell>
        <mxCell id="GUM8zhKuWnprm1asTcz1-26" style="edgeStyle=orthogonalEdgeStyle;rounded=0;orthogonalLoop=1;jettySize=auto;html=1;" edge="1" parent="1" source="GUM8zhKuWnprm1asTcz1-16" target="GUM8zhKuWnprm1asTcz1-8">
          <mxGeometry relative="1" as="geometry">
            <Array as="points">
              <mxPoint x="730" y="240" />
              <mxPoint x="730" y="240" />
            </Array>
          </mxGeometry>
        </mxCell>
        <mxCell id="GUM8zhKuWnprm1asTcz1-31" style="edgeStyle=orthogonalEdgeStyle;rounded=0;orthogonalLoop=1;jettySize=auto;html=1;entryX=0.5;entryY=0;entryDx=0;entryDy=0;" edge="1" parent="1" source="GUM8zhKuWnprm1asTcz1-16" target="GUM8zhKuWnprm1asTcz1-20">
          <mxGeometry relative="1" as="geometry" />
        </mxCell>
        <mxCell id="GUM8zhKuWnprm1asTcz1-16" value="" style="rounded=0;whiteSpace=wrap;html=1;" vertex="1" parent="1">
          <mxGeometry x="670" y="310" width="120" height="60" as="geometry" />
        </mxCell>
        <mxCell id="GUM8zhKuWnprm1asTcz1-18" value="&lt;strong&gt;&lt;font style=&quot;font-size: 14px;&quot;&gt;Chegada de Caminhão&lt;/font&gt;&lt;/strong&gt;" style="text;strokeColor=none;align=center;fillColor=none;html=1;verticalAlign=middle;whiteSpace=wrap;rounded=0;" vertex="1" parent="1">
          <mxGeometry x="265" y="25" width="60" height="30" as="geometry" />
        </mxCell>
        <mxCell id="GUM8zhKuWnprm1asTcz1-19" value="&lt;b&gt;&lt;font style=&quot;font-size: 14px;&quot;&gt;Descarga do Caminhão&lt;/font&gt;&lt;/b&gt;" style="text;strokeColor=none;align=center;fillColor=none;html=1;verticalAlign=middle;whiteSpace=wrap;rounded=0;" vertex="1" parent="1">
          <mxGeometry x="700" y="325" width="60" height="30" as="geometry" />
        </mxCell>
        <mxCell id="GUM8zhKuWnprm1asTcz1-27" style="edgeStyle=orthogonalEdgeStyle;rounded=0;orthogonalLoop=1;jettySize=auto;html=1;" edge="1" parent="1" source="GUM8zhKuWnprm1asTcz1-20" target="GUM8zhKuWnprm1asTcz1-8">
          <mxGeometry relative="1" as="geometry">
            <Array as="points">
              <mxPoint x="650" y="490" />
              <mxPoint x="650" y="180" />
            </Array>
          </mxGeometry>
        </mxCell>
        <mxCell id="GUM8zhKuWnprm1asTcz1-20" value="" style="rounded=0;whiteSpace=wrap;html=1;" vertex="1" parent="1">
          <mxGeometry x="670" y="460" width="120" height="60" as="geometry" />
        </mxCell>
        <mxCell id="GUM8zhKuWnprm1asTcz1-28" style="edgeStyle=orthogonalEdgeStyle;rounded=0;orthogonalLoop=1;jettySize=auto;html=1;entryX=1;entryY=0.25;entryDx=0;entryDy=0;" edge="1" parent="1" target="GUM8zhKuWnprm1asTcz1-15">
          <mxGeometry relative="1" as="geometry">
            <mxPoint x="660" y="490" as="sourcePoint" />
          </mxGeometry>
        </mxCell>
        <mxCell id="GUM8zhKuWnprm1asTcz1-21" value="&lt;b&gt;&lt;font style=&quot;font-size: 15px;&quot;&gt;Armazenamento no Depósito&lt;/font&gt;&lt;/b&gt;" style="text;strokeColor=none;align=center;fillColor=none;html=1;verticalAlign=middle;whiteSpace=wrap;rounded=0;" vertex="1" parent="1">
          <mxGeometry x="700" y="475" width="60" height="30" as="geometry" />
        </mxCell>
        <mxCell id="GUM8zhKuWnprm1asTcz1-22" value="&lt;b&gt;&lt;font style=&quot;font-size: 15px;&quot;&gt;Saída da Van para Entrega&lt;/font&gt;&lt;/b&gt;" style="rounded=0;whiteSpace=wrap;html=1;" vertex="1" parent="1">
          <mxGeometry x="455" y="460" width="120" height="60" as="geometry" />
        </mxCell>
        <mxCell id="GUM8zhKuWnprm1asTcz1-24" style="edgeStyle=orthogonalEdgeStyle;rounded=0;orthogonalLoop=1;jettySize=auto;html=1;entryX=0.67;entryY=0;entryDx=0;entryDy=0;entryPerimeter=0;" edge="1" parent="1" source="GUM8zhKuWnprm1asTcz1-1" target="GUM8zhKuWnprm1asTcz1-16">
          <mxGeometry relative="1" as="geometry">
            <Array as="points">
              <mxPoint x="295" y="260" />
              <mxPoint x="750" y="260" />
            </Array>
          </mxGeometry>
        </mxCell>
        <mxCell id="GUM8zhKuWnprm1asTcz1-32" style="edgeStyle=orthogonalEdgeStyle;rounded=0;orthogonalLoop=1;jettySize=auto;html=1;" edge="1" parent="1" source="GUM8zhKuWnprm1asTcz1-30" target="GUM8zhKuWnprm1asTcz1-10">
          <mxGeometry relative="1" as="geometry" />
        </mxCell>
        <mxCell id="GUM8zhKuWnprm1asTcz1-30" value="&lt;b&gt;&lt;font style=&quot;font-size: 15px;&quot;&gt;Chegada da Van&lt;/font&gt;&lt;/b&gt;" style="rounded=0;whiteSpace=wrap;html=1;" vertex="1" parent="1">
          <mxGeometry x="455" y="10" width="120" height="60" as="geometry" />
        </mxCell>
        <mxCell id="GUM8zhKuWnprm1asTcz1-35" value="&lt;b&gt;&lt;font style=&quot;font-size: 15px;&quot;&gt;Caminhão Rejeitado - Pátio Cheio&lt;/font&gt;&lt;/b&gt;" style="rounded=0;whiteSpace=wrap;html=1;" vertex="1" parent="1">
          <mxGeometry x="235" y="310" width="120" height="60" as="geometry" />
        </mxCell>
        <mxCell id="GUM8zhKuWnprm1asTcz1-37" value="&lt;b&gt;&lt;font style=&quot;font-size: 15px;&quot;&gt;Van Rejeitada - Todas Ocupadas&lt;/font&gt;&lt;/b&gt;" style="rounded=0;whiteSpace=wrap;html=1;" vertex="1" parent="1">
          <mxGeometry x="235" y="460" width="120" height="60" as="geometry" />
        </mxCell>
      </root>
    </mxGraphModel>
  </diagram>
</mxfile>
